<svg width="604" height="108" viewBox="0 0 604 108" fill="none" xmlns="http://www.w3.org/2000/svg">
<rect width="604" height="108" fill="#F7F7F7"/>
<path d="M81.834 38.8C86.4647 38.8 90.0067 39.6433 92.46 41.33C94.944 43.0167 96.186 45.654 96.186 49.242C96.186 51.1127 95.8487 52.7227 95.174 54.072C94.53 55.3907 93.5793 56.4793 92.322 57.338C91.0647 58.166 89.5313 58.7793 87.722 59.178C85.9127 59.5767 83.8427 59.776 81.512 59.776H78.614V71H72.818V39.582C74.1673 39.2753 75.6547 39.076 77.28 38.984C78.936 38.8613 80.454 38.8 81.834 38.8ZM82.248 43.814C80.776 43.814 79.5647 43.86 78.614 43.952V54.808H81.42C84.2107 54.808 86.3573 54.4247 87.86 53.658C89.3627 52.8607 90.114 51.3733 90.114 49.196C90.114 48.1533 89.9147 47.2793 89.516 46.574C89.1173 45.8687 88.5653 45.3167 87.86 44.918C87.1547 44.5193 86.3113 44.2433 85.33 44.09C84.3793 43.906 83.352 43.814 82.248 43.814ZM101.478 71V39.122H121.948V44.044H107.274V51.91H120.338V56.74H107.274V66.078H123.052V71H101.478ZM137.217 38.8C141.817 38.8 145.329 39.6433 147.751 41.33C150.205 43.0167 151.431 45.5927 151.431 49.058C151.431 53.382 149.3 56.3107 145.037 57.844C145.62 58.5493 146.279 59.408 147.015 60.42C147.751 61.432 148.503 62.536 149.269 63.732C150.036 64.8973 150.772 66.1087 151.477 67.366C152.183 68.5927 152.811 69.804 153.363 71H146.877C146.295 69.896 145.666 68.792 144.991 67.688C144.317 66.5533 143.627 65.4647 142.921 64.422C142.247 63.3487 141.572 62.352 140.897 61.432C140.223 60.4813 139.594 59.638 139.011 58.902C138.582 58.9327 138.214 58.948 137.907 58.948C137.601 58.948 137.309 58.948 137.033 58.948H134.227V71H128.431V39.582C129.842 39.2753 131.345 39.076 132.939 38.984C134.534 38.8613 135.96 38.8 137.217 38.8ZM137.631 43.814C136.405 43.814 135.27 43.86 134.227 43.952V54.256H136.757C138.168 54.256 139.41 54.1793 140.483 54.026C141.557 53.8727 142.446 53.5967 143.151 53.198C143.887 52.7993 144.439 52.2627 144.807 51.588C145.175 50.9133 145.359 50.0547 145.359 49.012C145.359 48.0307 145.175 47.2027 144.807 46.528C144.439 45.8533 143.903 45.3167 143.197 44.918C142.523 44.5193 141.71 44.2433 140.759 44.09C139.809 43.906 138.766 43.814 137.631 43.814ZM165.583 66.676C167.668 66.676 169.186 66.3233 170.137 65.618C171.088 64.9127 171.563 63.916 171.563 62.628C171.563 61.8613 171.394 61.202 171.057 60.65C170.75 60.098 170.29 59.6073 169.677 59.178C169.094 58.718 168.374 58.304 167.515 57.936C166.656 57.5373 165.675 57.154 164.571 56.786C163.467 56.3873 162.394 55.958 161.351 55.498C160.339 55.0073 159.434 54.4093 158.637 53.704C157.87 52.9987 157.242 52.1553 156.751 51.174C156.291 50.1927 156.061 49.012 156.061 47.632C156.061 44.7493 157.058 42.4953 159.051 40.87C161.044 39.214 163.758 38.386 167.193 38.386C169.186 38.386 170.95 38.616 172.483 39.076C174.047 39.5053 175.274 39.9807 176.163 40.502L174.369 45.194C173.326 44.6113 172.176 44.1667 170.919 43.86C169.692 43.5533 168.42 43.4 167.101 43.4C165.537 43.4 164.31 43.722 163.421 44.366C162.562 45.01 162.133 45.9147 162.133 47.08C162.133 47.7853 162.271 48.3987 162.547 48.92C162.854 49.4107 163.268 49.8553 163.789 50.254C164.341 50.6527 164.97 51.0207 165.675 51.358C166.411 51.6953 167.208 52.0173 168.067 52.324C169.57 52.876 170.904 53.4433 172.069 54.026C173.265 54.578 174.262 55.2527 175.059 56.05C175.887 56.8167 176.516 57.7367 176.945 58.81C177.374 59.8527 177.589 61.1253 177.589 62.628C177.589 65.5107 176.562 67.7493 174.507 69.344C172.483 70.908 169.508 71.69 165.583 71.69C164.264 71.69 163.053 71.598 161.949 71.414C160.876 71.2607 159.91 71.0613 159.051 70.816C158.223 70.5707 157.502 70.3253 156.889 70.08C156.276 69.804 155.785 69.5587 155.417 69.344L157.119 64.606C157.947 65.066 159.066 65.526 160.477 65.986C161.888 66.446 163.59 66.676 165.583 66.676ZM187.435 55.038C187.435 56.786 187.65 58.3807 188.079 59.822C188.508 61.2327 189.122 62.444 189.919 63.456C190.747 64.4373 191.744 65.204 192.909 65.756C194.074 66.308 195.393 66.584 196.865 66.584C198.306 66.584 199.61 66.308 200.775 65.756C201.94 65.204 202.922 64.4373 203.719 63.456C204.547 62.444 205.176 61.2327 205.605 59.822C206.034 58.3807 206.249 56.786 206.249 55.038C206.249 53.29 206.034 51.7107 205.605 50.3C205.176 48.8587 204.547 47.6473 203.719 46.666C202.922 45.654 201.94 44.872 200.775 44.32C199.61 43.768 198.306 43.492 196.865 43.492C195.393 43.492 194.074 43.768 192.909 44.32C191.744 44.872 190.747 45.654 189.919 46.666C189.122 47.678 188.508 48.8893 188.079 50.3C187.65 51.7107 187.435 53.29 187.435 55.038ZM212.321 55.038C212.321 57.7673 211.907 60.1747 211.079 62.26C210.282 64.3453 209.178 66.0933 207.767 67.504C206.387 68.884 204.762 69.9267 202.891 70.632C201.02 71.3373 199.027 71.69 196.911 71.69C194.795 71.69 192.786 71.3373 190.885 70.632C189.014 69.9267 187.374 68.884 185.963 67.504C184.583 66.0933 183.479 64.3453 182.651 62.26C181.823 60.1747 181.409 57.7673 181.409 55.038C181.409 52.3087 181.823 49.9167 182.651 47.862C183.479 45.7767 184.598 44.0287 186.009 42.618C187.45 41.2073 189.106 40.1493 190.977 39.444C192.848 38.7387 194.826 38.386 196.911 38.386C198.996 38.386 200.974 38.7387 202.845 39.444C204.716 40.1493 206.341 41.2073 207.721 42.618C209.132 44.0287 210.251 45.7767 211.079 47.862C211.907 49.9167 212.321 52.3087 212.321 55.038ZM240.161 71C239.119 69.252 237.953 67.3813 236.665 65.388C235.377 63.364 234.043 61.34 232.663 59.316C231.283 57.2613 229.873 55.2833 228.431 53.382C227.021 51.45 225.671 49.7173 224.383 48.184V71H218.679V39.122H223.417C224.644 40.41 225.963 41.9433 227.373 43.722C228.784 45.47 230.195 47.2947 231.605 49.196C233.047 51.0973 234.427 53.014 235.745 54.946C237.095 56.8473 238.291 58.626 239.333 60.282V39.122H245.083V71H240.161ZM273.89 71C273.461 69.7427 273.016 68.5007 272.556 67.274C272.096 66.0473 271.651 64.79 271.222 63.502H257.79C257.361 64.79 256.916 66.0627 256.456 67.32C256.027 68.5467 255.597 69.7733 255.168 71H249.142C250.338 67.596 251.473 64.4527 252.546 61.57C253.619 58.6873 254.662 55.958 255.674 53.382C256.717 50.806 257.744 48.3527 258.756 46.022C259.768 43.6913 260.811 41.3913 261.884 39.122H267.358C268.431 41.3913 269.474 43.6913 270.486 46.022C271.498 48.3527 272.51 50.806 273.522 53.382C274.565 55.958 275.623 58.6873 276.696 61.57C277.8 64.4527 278.95 67.596 280.146 71H273.89ZM264.506 45.286C263.801 46.9113 262.988 48.8893 262.068 51.22C261.179 53.5507 260.243 56.0807 259.262 58.81H269.75C268.769 56.0807 267.818 53.5353 266.898 51.174C265.978 48.8127 265.181 46.85 264.506 45.286ZM304.323 65.986V71H284.175V39.122H289.971V65.986H304.323ZM339.632 65.986V71H319.484V39.122H325.28V65.986H339.632ZM344.056 39.122H349.852V71H344.056V39.122ZM367.102 71.368C365.415 71.368 363.713 71.3067 361.996 71.184C360.279 71.092 358.776 70.8773 357.488 70.54V39.582C358.163 39.4593 358.883 39.352 359.65 39.26C360.417 39.1373 361.199 39.0453 361.996 38.984C362.793 38.9227 363.575 38.8767 364.342 38.846C365.139 38.8153 365.891 38.8 366.596 38.8C368.528 38.8 370.322 38.9533 371.978 39.26C373.634 39.536 375.06 40.0113 376.256 40.686C377.483 41.3607 378.433 42.25 379.108 43.354C379.783 44.458 380.12 45.8227 380.12 47.448C380.12 48.9507 379.752 50.2387 379.016 51.312C378.311 52.3853 377.314 53.244 376.026 53.888C377.958 54.532 379.384 55.4827 380.304 56.74C381.224 57.9973 381.684 59.592 381.684 61.524C381.684 64.8053 380.488 67.274 378.096 68.93C375.704 70.5553 372.039 71.368 367.102 71.368ZM363.192 56.648V66.354C363.836 66.4153 364.526 66.4613 365.262 66.492C365.998 66.5227 366.673 66.538 367.286 66.538C368.482 66.538 369.586 66.4613 370.598 66.308C371.641 66.1547 372.53 65.894 373.266 65.526C374.033 65.1273 374.631 64.606 375.06 63.962C375.52 63.318 375.75 62.49 375.75 61.478C375.75 59.6687 375.091 58.4113 373.772 57.706C372.453 57.0007 370.629 56.648 368.298 56.648H363.192ZM363.192 52.094H367.286C369.494 52.094 371.227 51.7873 372.484 51.174C373.741 50.53 374.37 49.3953 374.37 47.77C374.37 46.2367 373.711 45.148 372.392 44.504C371.104 43.86 369.417 43.538 367.332 43.538C366.443 43.538 365.645 43.5533 364.94 43.584C364.265 43.6147 363.683 43.6607 363.192 43.722V52.094ZM396.506 38.8C401.106 38.8 404.618 39.6433 407.04 41.33C409.494 43.0167 410.72 45.5927 410.72 49.058C410.72 53.382 408.589 56.3107 404.326 57.844C404.909 58.5493 405.568 59.408 406.304 60.42C407.04 61.432 407.792 62.536 408.558 63.732C409.325 64.8973 410.061 66.1087 410.766 67.366C411.472 68.5927 412.1 69.804 412.652 71H406.166C405.584 69.896 404.955 68.792 404.28 67.688C403.606 66.5533 402.916 65.4647 402.21 64.422C401.536 63.3487 400.861 62.352 400.186 61.432C399.512 60.4813 398.883 59.638 398.3 58.902C397.871 58.9327 397.503 58.948 397.196 58.948C396.89 58.948 396.598 58.948 396.322 58.948H393.516V71H387.72V39.582C389.131 39.2753 390.634 39.076 392.228 38.984C393.823 38.8613 395.249 38.8 396.506 38.8ZM396.92 43.814C395.694 43.814 394.559 43.86 393.516 43.952V54.256H396.046C397.457 54.256 398.699 54.1793 399.772 54.026C400.846 53.8727 401.735 53.5967 402.44 53.198C403.176 52.7993 403.728 52.2627 404.096 51.588C404.464 50.9133 404.648 50.0547 404.648 49.012C404.648 48.0307 404.464 47.2027 404.096 46.528C403.728 45.8533 403.192 45.3167 402.486 44.918C401.812 44.5193 400.999 44.2433 400.048 44.09C399.098 43.906 398.055 43.814 396.92 43.814ZM439.472 71C439.043 69.7427 438.598 68.5007 438.138 67.274C437.678 66.0473 437.233 64.79 436.804 63.502H423.372C422.943 64.79 422.498 66.0627 422.038 67.32C421.609 68.5467 421.179 69.7733 420.75 71H414.724C415.92 67.596 417.055 64.4527 418.128 61.57C419.201 58.6873 420.244 55.958 421.256 53.382C422.299 50.806 423.326 48.3527 424.338 46.022C425.35 43.6913 426.393 41.3913 427.466 39.122H432.94C434.013 41.3913 435.056 43.6913 436.068 46.022C437.08 48.3527 438.092 50.806 439.104 53.382C440.147 55.958 441.205 58.6873 442.278 61.57C443.382 64.4527 444.532 67.596 445.728 71H439.472ZM430.088 45.286C429.383 46.9113 428.57 48.8893 427.65 51.22C426.761 53.5507 425.825 56.0807 424.844 58.81H435.332C434.351 56.0807 433.4 53.5353 432.48 51.174C431.56 48.8127 430.763 46.85 430.088 45.286ZM458.543 38.8C463.143 38.8 466.655 39.6433 469.077 41.33C471.531 43.0167 472.757 45.5927 472.757 49.058C472.757 53.382 470.626 56.3107 466.363 57.844C466.946 58.5493 467.605 59.408 468.341 60.42C469.077 61.432 469.829 62.536 470.595 63.732C471.362 64.8973 472.098 66.1087 472.803 67.366C473.509 68.5927 474.137 69.804 474.689 71H468.203C467.621 69.896 466.992 68.792 466.317 67.688C465.643 66.5533 464.953 65.4647 464.247 64.422C463.573 63.3487 462.898 62.352 462.223 61.432C461.549 60.4813 460.92 59.638 460.337 58.902C459.908 58.9327 459.54 58.948 459.233 58.948C458.927 58.948 458.635 58.948 458.359 58.948H455.553V71H449.757V39.582C451.168 39.2753 452.671 39.076 454.265 38.984C455.86 38.8613 457.286 38.8 458.543 38.8ZM458.957 43.814C457.731 43.814 456.596 43.86 455.553 43.952V54.256H458.083C459.494 54.256 460.736 54.1793 461.809 54.026C462.883 53.8727 463.772 53.5967 464.477 53.198C465.213 52.7993 465.765 52.2627 466.133 51.588C466.501 50.9133 466.685 50.0547 466.685 49.012C466.685 48.0307 466.501 47.2027 466.133 46.528C465.765 45.8533 465.229 45.3167 464.523 44.918C463.849 44.5193 463.036 44.2433 462.085 44.09C461.135 43.906 460.092 43.814 458.957 43.814ZM489.136 53.244C490.516 50.944 491.865 48.6133 493.184 46.252C494.502 43.8907 495.698 41.514 496.772 39.122H503.212C501.494 42.3727 499.7 45.608 497.83 48.828C495.99 52.0173 494.012 55.2373 491.896 58.488V71H486.1V58.58C483.984 55.2987 481.99 52.048 480.12 48.828C478.249 45.608 476.455 42.3727 474.738 39.122H481.546C482.619 41.514 483.8 43.8907 485.088 46.252C486.376 48.6133 487.725 50.944 489.136 53.244Z" fill="black"/>
</svg>
